<svg id="HBO_Max_Logo" data-name="HBO Max Logo" xmlns="http://www.w3.org/2000/svg" xmlns:xlink="http://www.w3.org/1999/xlink" viewBox="0 0 382.1 279.2"><defs><style>.cls-1{fill:none;}.cls-2{clip-path:url(#clip-path);}</style><clipPath id="clip-path"><rect class="cls-1" x="2.4" y="175.2" width="365.3" height="99.41"/></clipPath></defs><path id="HBO_Max_Logo-2" data-name="HBO Max Logo" d="M71.8,5.2V61.7H45V5.2H2.4v152H45v-59H71.8v59h41.3V5.2ZM302.4,49.6A30.4,30.4,0,1,0,332.9,80,30.4,30.4,0,0,0,302.4,49.6Zm0-47c-42.5,0-64.3,31.3-69.7,44,.1-19-18.6-41.4-40.5-41.4H121.7v152h65.7c26.5,0,45.4-22.9,45.4-42.6,6.1,12.4,27.1,43.4,69.6,43.4s77.3-35.4,77.3-78A77.1,77.1,0,0,0,302.4,2.6ZM181.9,121.8H161V96.1h20.9c6.1,0,10.9,6,10.9,12.9S188,121.8,181.9,121.8Zm.1-57.1H161.1V39H182c6.1,0,10.9,6,10.9,12.9S188.1,64.7,182,64.7ZM209.8,80c4.8-.6,12.8-6.1,15.6-9.6-1,4.3-1,16.9.1,21.2C222.3,86.7,214.7,80.6,209.8,80Zm92.6,38.7A38.7,38.7,0,1,1,341.1,80,38.7,38.7,0,0,1,302.4,118.7Zm0-69.1A30.4,30.4,0,1,0,332.9,80,30.4,30.4,0,0,0,302.4,49.6Zm0,0A30.4,30.4,0,1,0,332.9,80,30.4,30.4,0,0,0,302.4,49.6Z"/><g class="cls-2"><path d="M141.5,273.8V214.3c0-26.3-7.1-39.1-28.8-39.1-12.3,0-25.3,10.4-32.5,17-3.6-11.4-11.6-17-25.9-17-10.9,0-22.4,8.2-29.7,14.5V177.8H2.4v96H24.6V209.1c7.2-6.3,17.6-14,25.4-14,9.3,0,10.8,7.2,10.8,19.2v59.5H83V214.3a41,41,0,0,0-.2-5c7.2-6.3,17.8-14.2,25.6-14.2s10.8,7.2,10.8,19.2v59.5Z"/><path d="M326.1,224.4a270.4,270.4,0,0,0,39.2-46.6H337.4c-6.8,11.7-15.1,21.8-25.3,32.3-10.1-10.5-19.1-20.6-25.3-32.3H258.9a271,271,0,0,0,39.3,46.6,288.5,288.5,0,0,0-41.7,49.4h28c7.5-12.8,16.7-23.7,27.6-34.8,10.9,11.1,20.1,22,27.7,34.8h27.9a288,288,0,0,0-41.6-49.4"/><path d="M199.5,253.7a29.1,29.1,0,1,1,29.1-29.1,29.1,29.1,0,0,1-29.1,29.1m28.9-75.9v11.6c-8.4-9.7-19.2-14.2-31.6-14.2-25.8,0-47.2,22.1-47.2,49.7s21.4,49.7,47.2,49.7c12.4,0,23.2-4.5,31.6-14.2v13.4h22.1v-96Z"/></g></svg>